# https://github.com/mikedh/trimesh
mtllib material.mtl
usemtl material_0
v 5.11871300 1.34340200 -2.17913800
v 4.87763800 2.13697300 -2.17913800
v 4.87160900 2.13514100 -2.21487200
v 5.11268400 1.34157000 -2.21487200
v 4.65380800 1.33751300 -2.19700500
v 4.89072000 2.13319900 -2.19700500
v 4.85594200 2.14354900 -2.19700500
v 4.61903000 1.34786300 -2.19700500
v 5.13305700 1.34776000 -2.19700500
v 4.89198200 2.14133000 -2.19700500
v 4.85726400 2.13078300 -2.19700500
v 5.09833900 1.33721300 -2.19700500
v 4.63435200 1.34411500 -2.21487200
v 4.88672900 2.13503200 -2.21487200
v 4.88072600 2.13694700 -2.17913800
v 4.62835000 1.34603000 -2.17913800
v -5.94964800 1.34340200 -2.17913800
v -6.19072300 2.13697300 -2.17913800
v -6.19675200 2.13514100 -2.21487200
v -5.95567600 1.34157000 -2.21487200
v -6.41455200 1.33751300 -2.19700500
v -6.17764000 2.13319900 -2.19700500
v -6.21241800 2.14354900 -2.19700500
v -6.44933100 1.34786300 -2.19700500
v -5.93530300 1.34776000 -2.19700500
v -6.17637800 2.14133000 -2.19700500
v -6.21109700 2.13078300 -2.19700500
v -5.97002200 1.33721300 -2.19700500
v -6.43400900 1.34411500 -2.21487200
v -6.18163100 2.13503200 -2.21487200
v -6.18763400 2.13694700 -2.17913800
v -6.44001100 1.34603000 -2.17913800
v -6.43443500 1.34340200 1.41555000
v -6.19336100 2.13697300 1.41555000
v -6.18733200 2.13514100 1.45128400
v -6.42840600 1.34157000 1.45128400
v -5.96953100 1.33751300 1.43341700
v -6.20644300 2.13319900 1.43341700
v -6.17166500 2.14354900 1.43341700
v -5.93475300 1.34786300 1.43341700
v -6.44878100 1.34776000 1.43341700
v -6.20770500 2.14133000 1.43341800
v -6.17298600 2.13078300 1.43341800
v -6.41406100 1.33721300 1.43341700
v -5.95007500 1.34411500 1.45128400
v -6.20245200 2.13503200 1.45128400
v -6.19644900 2.13694700 1.41555000
v -5.94407200 1.34603000 1.41555000
v 4.63392600 1.34340200 1.41554800
v 4.87500000 2.13697300 1.41554900
v 4.88102900 2.13514100 1.45128300
v 4.63995400 1.34157000 1.45128300
v 5.09882900 1.33751300 1.43341600
v 4.86191800 2.13319900 1.43341600
v 4.89669600 2.14354900 1.43341600
v 5.13360800 1.34786300 1.43341600
v 4.61958000 1.34776000 1.43341600
v 4.86065600 2.14133000 1.43341600
v 4.89537500 2.13078300 1.43341600
v 4.65429900 1.33721300 1.43341600
v 5.11828600 1.34411500 1.45128300
v 4.86590800 2.13503200 1.45128300
v 4.87191200 2.13694700 1.41554900
v 5.12428800 1.34603000 1.41554800
f 1 2 3
f 5 6 7
f 9 10 11
f 13 14 15
f 17 18 19
f 21 22 23
f 25 26 27
f 29 30 31
f 33 34 35
f 37 38 39
f 41 42 43
f 45 46 47
f 49 50 51
f 53 54 55
f 57 58 59
f 61 62 63
f 3 4 1
f 7 8 5
f 11 12 9
f 15 16 13
f 19 20 17
f 23 24 21
f 27 28 25
f 31 32 29
f 35 36 33
f 39 40 37
f 43 44 41
f 47 48 45
f 51 52 49
f 55 56 53
f 59 60 57
f 63 64 61

