# https://github.com/mikedh/trimesh
mtllib material.mtl
usemtl material_0
v 13.02220900 4.15530300 -6.45431000
v 9.00171300 4.15530300 -6.45431000
v 9.00171300 4.15530300 -3.01763200
v 13.02220900 4.15530300 -3.01763200
v -10.30174800 4.15530300 -3.01763200
v -10.30174800 4.15530300 -6.45431000
v -14.32224400 4.15530300 -6.45431000
v -14.32224400 4.15530300 -3.01763200
v -10.30174800 4.15530300 2.30517400
v -14.32224400 4.15530300 2.30517400
v 9.00171300 4.15530300 2.30517400
v 9.00171300 4.15530300 5.74185200
v 13.02220900 4.15530300 5.74185200
v 13.02220900 4.15530300 2.30517400
v -14.32224400 4.15530300 5.74185200
v -10.30174800 4.15530300 5.74185200
v 1.29614700 -0.02506200 5.74029500
v 13.02190600 -0.02506200 5.74029700
v 13.02190600 -0.02506200 -6.43361700
v -2.54356700 -0.02506200 5.74029400
v -14.28519800 -0.02506200 5.74029300
v -0.63342000 -0.02506200 -6.43836400
v -14.28519800 -0.02506200 -6.44311400
vn 0.00000000 1.00000000 0.00000000
vn 0.00000000 1.00000000 0.00000000
vn 0.00000000 1.00000000 0.00000000
vn 0.00000000 1.00000000 0.00000000
vn 0.00000000 1.00000000 0.00000000
vn 0.00000000 1.00000000 0.00000000
vn 0.00000000 1.00000000 0.00000000
vn 0.00000000 1.00000000 0.00000000
vn 0.00000000 1.00000000 0.00000000
vn 0.00000000 1.00000000 0.00000000
vn 0.00000000 1.00000000 0.00000000
vn 0.00000000 1.00000000 0.00000000
vn 0.00000000 1.00000000 0.00000000
vn 0.00000000 1.00000000 0.00000000
vn 0.00000000 1.00000000 0.00000000
vn 0.00000000 1.00000000 0.00000000
vn 0.00000000 1.00000000 0.00000000
vn 0.00000000 1.00000000 0.00000000
vn 0.00000000 1.00000000 0.00000000
vn 0.00000000 1.00000000 0.00000000
vn 0.00000000 1.00000000 0.00000000
vn 0.00000000 1.00000000 0.00000000
vn 0.00000000 1.00000000 0.00000000
vt 6.71890000 3.18520000
vt 5.73100000 3.18520000
vt 5.73100000 2.32740000
vt 6.71890000 2.32740000
vt 0.98790000 2.32740000
vt 0.98790000 3.18520000
vt 0.00000000 3.18520000
vt 0.00000000 2.32740000
vt 0.98790000 1.01730000
vt 0.00000000 1.01730000
vt 5.73100000 1.01730000
vt 5.73100000 0.14090000
vt 6.71890000 0.14090000
vt 6.71890000 1.01730000
vt 0.00000000 0.14090000
vt 0.98790000 0.14090000
vt 2.62170000 5.95250000
vt -1.89050000 5.95250000
vt -1.89050000 1.26790000
vt 4.09920000 5.95250000
vt 8.61750000 5.95250000
vt 3.36420000 1.26610000
vt 8.61750000 1.26420000
f 1/1/1 2/2/2 3/3/3
f 3/3/3 4/4/4 1/1/1
f 5/5/5 6/6/6 7/7/7
f 7/7/7 8/8/8 5/5/5
f 9/9/9 5/5/5 8/8/8
f 8/8/8 10/10/10 9/9/9
f 2/2/2 6/6/6 5/5/5
f 5/5/5 3/3/3 2/2/2
f 11/11/11 12/12/12 13/13/13
f 13/13/13 14/14/14 11/11/11
f 3/3/3 11/11/11 14/14/14
f 14/14/14 4/4/4 3/3/3
f 15/15/15 16/16/16 9/9/9
f 9/9/9 10/10/10 15/15/15
f 16/16/16 12/12/12 11/11/11
f 11/11/11 9/9/9 16/16/16
f 17/17/17 18/18/18 19/19/19
f 19/19/19 20/20/20 17/17/17
f 21/21/21 20/20/20 19/19/19
f 19/19/19 22/22/22 21/21/21
f 23/23/23 21/21/21 22/22/22

