# https://github.com/mikedh/trimesh
mtllib material.mtl
usemtl material_0
v -8.26290000 256.73100000 568.65840000
v -15.32070000 260.57600000 571.49680000
v -15.32080000 339.74520000 571.49680000
v -8.26300000 348.19740000 568.65840000
v -119.40730000 256.73100000 575.50520000
v -119.40730000 256.73100000 568.65840000
v -8.26290000 256.73100000 575.50520000
v -119.40730000 348.19740000 575.50520000
v -119.40730000 348.19740000 568.65840000
v -8.26300000 348.19740000 575.50520000
v -111.89760000 260.57590000 571.49680000
v -111.89760000 339.74520000 571.49680000
f 1 2 3
f 5 6 1
f 8 9 6
f 10 4 9
f 7 1 4
f 3 2 11
f 4 3 12
f 6 11 2
f 6 9 12
f 3 4 1
f 1 7 5
f 6 5 8
f 9 8 10
f 4 10 7
f 11 12 3
f 12 9 4
f 2 1 6
f 12 11 6

