####
#
# OBJ File Generated by Meshlab
#
####
# Object Mesh010.obj
#
# Vertices: 20
# Faces: 10
#
####
mtllib ./Mesh010.obj.mtl

vn 0.0000000 0.0000000 -1.0000000
v 4.0000000 0.0000000 4.0000000
vn 0.0000000 0.0000000 -1.0000000
v 4.0000000 8.0000000 4.0000000
vn 0.0000000 0.0000000 -1.0000000
v -4.0000000 8.0000000 4.0000000
vn 0.0000000 0.0000000 -1.0000000
v -4.0000000 0.0000000 4.0000000
vn 1.0000000 0.0000000 0.0000000
v -4.0000000 0.0000000 4.0000000
vn 1.0000000 0.0000000 0.0000000
v -4.0000000 8.0000000 4.0000000
vn 1.0000000 0.0000000 0.0000000
v -4.0000000 8.0000000 -4.0000000
vn 1.0000000 0.0000000 0.0000000
v -4.0000000 0.0000000 -4.0000000
vn 0.0000000 0.0000000 1.0000000
v -4.0000000 0.0000000 -4.0000000
vn 0.0000000 0.0000000 1.0000000
v -4.0000000 8.0000000 -4.0000000
vn 0.0000000 0.0000000 1.0000000
v 4.0000000 8.0000000 -4.0000000
vn 0.0000000 0.0000000 1.0000000
v 4.0000000 0.0000000 -4.0000000
vn 0.0000000 -1.0000000 0.0000000
v 4.0000000 8.0000000 -4.0000000
vn 0.0000000 -1.0000000 0.0000000
v -4.0000000 8.0000000 -4.0000000
vn 0.0000000 -1.0000000 0.0000000
v -4.0000000 8.0000000 4.0000000
vn 0.0000000 -1.0000000 0.0000000
v 4.0000000 8.0000000 4.0000000
vn 0.0000000 1.0000000 0.0000000
v -4.0000000 0.0000000 -4.0000000
vn 0.0000000 1.0000000 0.0000000
v 4.0000000 0.0000000 -4.0000000
vn 0.0000000 1.0000000 0.0000000
v 4.0000000 0.0000000 4.0000000
vn 0.0000000 1.0000000 0.0000000
v -4.0000000 0.0000000 4.0000000
# 20 vertices, 0 vertices normals


usemtl material_0
vt 0.0009766 0.9990234
vt 0.0009766 0.6690243
vt 0.3309757 0.9990234
f 2/1/2 1/2/1 3/3/3
vt 0.3323568 0.9976424
vt 0.0023576 0.6676432
vt 0.3323568 0.6676432
f 3/4/3 1/5/1 4/6/4
vt 0.3343099 0.9990234
vt 0.3343099 0.6690243
vt 0.6643090 0.9990234
f 6/7/6 5/8/5 7/9/7
vt 0.6656901 0.9976424
vt 0.3356910 0.6676432
vt 0.6656901 0.6676432
f 7/10/7 5/11/5 8/12/8
vt 0.6676432 0.9990234
vt 0.6676432 0.6690243
vt 0.9976424 0.9990234
f 10/13/10 9/14/9 11/15/11
vt 0.9990234 0.9976424
vt 0.6690243 0.6676432
vt 0.9990234 0.6676432
f 11/16/11 9/17/9 12/18/12
vt 0.0009766 0.6656901
vt 0.0009766 0.3356909
vt 0.3309757 0.6656901
f 14/19/14 13/20/13 15/21/15
vt 0.3323568 0.6643090
vt 0.0023576 0.3343098
vt 0.3323568 0.3343098
f 15/22/15 13/23/13 16/24/16
vt 0.3343099 0.6656901
vt 0.3343099 0.3356909
vt 0.6643090 0.6656901
f 18/25/18 17/26/17 19/27/19
vt 0.6656901 0.6643090
vt 0.3356910 0.3343098
vt 0.6656901 0.3343098
f 19/28/19 17/29/17 20/30/20
# 10 faces, 30 coords texture

# End of File
