####
#
# OBJ File Generated by Meshlab
#
####
# Object table_leg.obj
#
# Vertices: 64
# Faces: 64
#
####
mtllib ./table_leg.obj.mtl

vn 0.0000000 0.0000000 -1.0000000
v 0.0034480 -0.0289653 -0.2387884
vn 0.0000000 0.0000000 -1.0000000
v 0.0034480 0.5448246 -0.2387884
vn 0.1950968 0.0000000 -0.9807840
v 0.0121880 0.5448246 -0.2379276
vn 0.1950968 0.0000000 -0.9807840
v 0.0121880 -0.0289653 -0.2379276
vn 0.3826903 0.0000000 -0.9238767
v 0.0205924 0.5448246 -0.2353784
vn 0.3826903 0.0000000 -0.9238767
v 0.0205924 -0.0289653 -0.2353784
vn 0.5556230 0.0000000 -0.8314344
v 0.0283376 0.5448246 -0.2312384
vn 0.5556230 0.0000000 -0.8314344
v 0.0283376 -0.0289653 -0.2312384
vn 0.7071068 0.0000000 -0.7071068
v 0.0351264 0.5448246 -0.2256668
vn 0.7071068 0.0000000 -0.7071068
v 0.0351264 -0.0289653 -0.2256668
vn 0.8314344 0.0000000 -0.5556230
v 0.0406980 0.5448246 -0.2188780
vn 0.8314344 0.0000000 -0.5556230
v 0.0406980 -0.0289653 -0.2188780
vn 0.9238767 0.0000000 -0.3826903
v 0.0448380 0.5448246 -0.2111328
vn 0.9238767 0.0000000 -0.3826903
v 0.0448380 -0.0289653 -0.2111328
vn 0.9807840 0.0000000 -0.1950968
v 0.0473872 0.5448246 -0.2027284
vn 0.9807840 0.0000000 -0.1950968
v 0.0473872 -0.0289653 -0.2027284
vn 1.0000000 0.0000000 0.0000000
v 0.0482480 0.5448246 -0.1939884
vn 1.0000000 0.0000000 0.0000000
v 0.0482480 -0.0289653 -0.1939884
vn 0.9807840 0.0000000 0.1950968
v 0.0473872 0.5448246 -0.1852484
vn 0.9807840 0.0000000 0.1950968
v 0.0473872 -0.0289653 -0.1852484
vn 0.9238767 0.0000000 0.3826903
v 0.0448380 0.5448246 -0.1768444
vn 0.9238767 0.0000000 0.3826903
v 0.0448380 -0.0289653 -0.1768444
vn 0.8314344 0.0000000 0.5556230
v 0.0406980 0.5448246 -0.1690988
vn 0.8314344 0.0000000 0.5556230
v 0.0406980 -0.0289653 -0.1690988
vn 0.7071068 0.0000000 0.7071068
v 0.0351264 0.5448246 -0.1623100
vn 0.7071068 0.0000000 0.7071068
v 0.0351264 -0.0289653 -0.1623100
vn 0.5556230 0.0000000 0.8314344
v 0.0283376 0.5448246 -0.1567388
vn 0.5556230 0.0000000 0.8314344
v 0.0283376 -0.0289653 -0.1567388
vn 0.3826903 0.0000000 0.9238767
v 0.0205924 0.5448246 -0.1525988
vn 0.3826903 0.0000000 0.9238767
v 0.0205924 -0.0289653 -0.1525988
vn 0.1950968 0.0000000 0.9807840
v 0.0121880 0.5448246 -0.1500492
vn 0.1950968 0.0000000 0.9807840
v 0.0121880 -0.0289653 -0.1500492
vn 0.0000000 0.0000000 1.0000000
v 0.0034480 0.5448246 -0.1491884
vn 0.0000000 0.0000000 1.0000000
v 0.0034480 -0.0289653 -0.1491884
vn -0.1950968 0.0000000 0.9807840
v -0.0052920 0.5448246 -0.1500492
vn -0.1950968 0.0000000 0.9807840
v -0.0052920 -0.0289653 -0.1500492
vn -0.3826903 0.0000000 0.9238767
v -0.0136960 0.5448246 -0.1525988
vn -0.3826903 0.0000000 0.9238767
v -0.0136960 -0.0289653 -0.1525988
vn -0.5556230 0.0000000 0.8314344
v -0.0214416 0.5448246 -0.1567388
vn -0.5556230 0.0000000 0.8314344
v -0.0214416 -0.0289653 -0.1567388
vn -0.7071068 0.0000000 0.7071068
v -0.0282304 0.5448246 -0.1623100
vn -0.7071068 0.0000000 0.7071068
v -0.0282304 -0.0289653 -0.1623100
vn -0.8314344 0.0000000 0.5556230
v -0.0338016 0.5448246 -0.1690988
vn -0.8314344 0.0000000 0.5556230
v -0.0338016 -0.0289653 -0.1690988
vn -0.9238767 0.0000000 0.3826903
v -0.0379416 0.5448246 -0.1768444
vn -0.9238767 0.0000000 0.3826903
v -0.0379416 -0.0289653 -0.1768444
vn -0.9807840 0.0000000 0.1950968
v -0.0404912 0.5448246 -0.1852484
vn -0.9807840 0.0000000 0.1950968
v -0.0404912 -0.0289653 -0.1852484
vn -1.0000000 0.0000000 0.0000000
v -0.0413520 0.5448246 -0.1939884
vn -1.0000000 0.0000000 0.0000000
v -0.0413520 -0.0289653 -0.1939884
vn -0.9807840 0.0000000 -0.1950968
v -0.0404912 0.5448246 -0.2027284
vn -0.9807840 0.0000000 -0.1950968
v -0.0404912 -0.0289653 -0.2027284
vn -0.9238767 0.0000000 -0.3826903
v -0.0379416 0.5448246 -0.2111328
vn -0.9238767 0.0000000 -0.3826903
v -0.0379416 -0.0289653 -0.2111328
vn -0.8314344 0.0000000 -0.5556230
v -0.0338016 0.5448246 -0.2188780
vn -0.8314344 0.0000000 -0.5556230
v -0.0338016 -0.0289653 -0.2188780
vn -0.7071068 0.0000000 -0.7071068
v -0.0282304 0.5448246 -0.2256668
vn -0.7071068 0.0000000 -0.7071068
v -0.0282304 -0.0289653 -0.2256668
vn -0.5556230 0.0000000 -0.8314344
v -0.0214412 0.5448246 -0.2312384
vn -0.5556230 0.0000000 -0.8314344
v -0.0214412 -0.0289653 -0.2312384
vn -0.3826903 0.0000000 -0.9238767
v -0.0136960 0.5448246 -0.2353784
vn -0.3826903 0.0000000 -0.9238767
v -0.0136960 -0.0289653 -0.2353784
vn -0.1950968 0.0000000 -0.9807840
v -0.0052920 -0.0289653 -0.2379276
vn -0.1950968 0.0000000 -0.9807840
v -0.0052920 0.5448246 -0.2379276
# 64 vertices, 0 vertices normals


usemtl material_0
vt 0.0000000 0.0000000
f 1/1/1 2/1/2 3/1/3
f 1/1/1 3/1/3 4/1/4
f 4/1/4 3/1/3 5/1/5
f 4/1/4 5/1/5 6/1/6
f 6/1/6 5/1/5 7/1/7
f 6/1/6 7/1/7 8/1/8
f 8/1/8 7/1/7 9/1/9
f 8/1/8 9/1/9 10/1/10
f 10/1/10 9/1/9 11/1/11
f 10/1/10 11/1/11 12/1/12
f 12/1/12 11/1/11 13/1/13
f 12/1/12 13/1/13 14/1/14
f 14/1/14 13/1/13 15/1/15
f 14/1/14 15/1/15 16/1/16
f 16/1/16 15/1/15 17/1/17
f 16/1/16 17/1/17 18/1/18
f 18/1/18 17/1/17 19/1/19
f 18/1/18 19/1/19 20/1/20
f 20/1/20 19/1/19 21/1/21
f 20/1/20 21/1/21 22/1/22
f 22/1/22 21/1/21 23/1/23
f 22/1/22 23/1/23 24/1/24
f 24/1/24 23/1/23 25/1/25
f 24/1/24 25/1/25 26/1/26
f 26/1/26 25/1/25 27/1/27
f 26/1/26 27/1/27 28/1/28
f 28/1/28 27/1/27 29/1/29
f 28/1/28 29/1/29 30/1/30
f 30/1/30 29/1/29 31/1/31
f 30/1/30 31/1/31 32/1/32
f 32/1/32 31/1/31 33/1/33
f 32/1/32 33/1/33 34/1/34
f 34/1/34 33/1/33 35/1/35
f 34/1/34 35/1/35 36/1/36
f 36/1/36 35/1/35 37/1/37
f 36/1/36 37/1/37 38/1/38
f 38/1/38 37/1/37 39/1/39
f 38/1/38 39/1/39 40/1/40
f 40/1/40 39/1/39 41/1/41
f 40/1/40 41/1/41 42/1/42
f 42/1/42 41/1/41 43/1/43
f 42/1/42 43/1/43 44/1/44
f 44/1/44 43/1/43 45/1/45
f 44/1/44 45/1/45 46/1/46
f 46/1/46 45/1/45 47/1/47
f 46/1/46 47/1/47 48/1/48
f 48/1/48 47/1/47 49/1/49
f 48/1/48 49/1/49 50/1/50
f 50/1/50 49/1/49 51/1/51
f 50/1/50 51/1/51 52/1/52
f 52/1/52 51/1/51 53/1/53
f 52/1/52 53/1/53 54/1/54
f 54/1/54 53/1/53 55/1/55
f 54/1/54 55/1/55 56/1/56
f 56/1/56 55/1/55 57/1/57
f 56/1/56 57/1/57 58/1/58
f 58/1/58 57/1/57 59/1/59
f 58/1/58 59/1/59 60/1/60
f 60/1/60 59/1/59 61/1/61
f 60/1/60 61/1/61 62/1/62
f 63/1/63 64/1/64 2/1/2
f 63/1/63 2/1/2 1/1/1
f 62/1/62 61/1/61 64/1/64
f 62/1/62 64/1/64 63/1/63
# 64 faces, 1 coords texture

# End of File
