####
#
# OBJ File Generated by Meshlab
#
####
# Object table.obj
#
# Vertices: 24
# Faces: 12
#
####
mtllib ./table.obj.mtl

vn 0.0000000 0.0000000 1.0000000
v 0.8014321 0.3253104 0.5791209
vn 0.0000000 0.0000000 1.0000000
v -0.7985679 0.3253104 0.5791211
vn 0.0000000 0.0000000 1.0000000
v -0.7985679 0.2953104 0.5791211
vn 0.0000000 0.0000000 1.0000000
v 0.8014321 0.2953104 0.5791209
vn -1.0000000 0.0000000 0.0000000
v -0.7985679 0.3253104 0.5791211
vn -1.0000000 0.0000000 0.0000000
v -0.7985679 0.3253104 -0.4208789
vn -1.0000000 0.0000000 0.0000000
v -0.7985679 0.2953104 -0.4208789
vn -1.0000000 0.0000000 0.0000000
v -0.7985679 0.2953104 0.5791211
vn 0.0000000 0.0000000 -1.0000000
v -0.7985679 0.3253104 -0.4208789
vn 0.0000000 0.0000000 -1.0000000
v 0.8014321 0.3253104 -0.4208790
vn 0.0000000 0.0000000 -1.0000000
v 0.8014321 0.2953104 -0.4208790
vn 0.0000000 0.0000000 -1.0000000
v -0.7985679 0.2953104 -0.4208789
vn 1.0000000 0.0000000 0.0000000
v 0.8014321 0.3253104 -0.4208790
vn 1.0000000 0.0000000 0.0000000
v 0.8014321 0.3253104 0.5791209
vn 1.0000000 0.0000000 0.0000000
v 0.8014321 0.2953104 0.5791209
vn 1.0000000 0.0000000 0.0000000
v 0.8014321 0.2953104 -0.4208790
vn 0.0000000 -1.0000000 0.0000000
v 0.8014321 0.2953104 0.5791209
vn 0.0000000 -1.0000000 0.0000000
v -0.7985679 0.2953104 0.5791211
vn 0.0000000 -1.0000000 0.0000000
v -0.7985679 0.2953104 -0.4208789
vn 0.0000000 -1.0000000 0.0000000
v 0.8014321 0.2953104 -0.4208790
vn 0.0000000 1.0000000 0.0000000
v 0.8014321 0.3253104 -0.4208790
vn 0.0000000 1.0000000 0.0000000
v -0.7985679 0.3253104 -0.4208789
vn 0.0000000 1.0000000 0.0000000
v -0.7985679 0.3253104 0.5791211
vn 0.0000000 1.0000000 0.0000000
v 0.8014321 0.3253104 0.5791209
# 24 vertices, 0 vertices normals


usemtl material_0
vt 0.0805520 0.4874210
vt 0.9286870 0.4874210
vt 0.9286870 0.5034250
f 1/1/1 2/2/2 3/3/3
vt 0.0805530 0.5034250
f 1/1/1 3/3/3 4/4/4
vt 0.9283790 0.0225900
vt 0.9283790 0.4861690
vt 0.9480220 0.4861690
f 5/5/5 6/6/6 7/7/7
vt 0.9480220 0.0225900
f 5/5/5 7/7/7 8/8/8
vt 0.9283530 0.0212500
vt 0.0799560 0.0212500
vt 0.0799560 0.0064570
f 9/9/9 10/10/10 11/11/11
vt 0.9283530 0.0064570
f 9/9/9 11/11/11 12/12/12
vt 0.0800360 0.0209150
vt 0.0800360 0.4869660
vt 0.0579940 0.4869660
f 13/13/13 14/14/14 15/15/15
vt 0.0579940 0.0209150
f 13/13/13 15/15/15 16/16/16
vt 0.0836810 0.9682450
vt 0.9301810 0.9682450
vt 0.9301810 0.5039760
f 17/17/17 18/18/18 19/19/19
vt 0.0836810 0.5039760
f 17/17/17 19/19/19 20/20/20
vt 0.0799500 0.0212160
vt 0.9289250 0.0212160
vt 0.9289250 0.4874350
f 21/21/21 22/22/22 23/23/23
vt 0.0799490 0.4874350
f 21/21/21 23/23/23 24/24/24
# 12 faces, 24 coords texture

# End of File
